<mxfile host="app.diagrams.net" modified="2022-12-11T12:30:37.166Z" agent="5.0 (X11; Ubuntu)" etag="iwZlmDLRqYonfcNs85op" version="20.6.1" type="github">
  <diagram id="zjbsmMx9dNUYekVJXI4S" name="Page-1">
    <mxGraphModel dx="68" dy="993" grid="1" gridSize="10" guides="1" tooltips="1" connect="1" arrows="1" fold="1" page="0" pageScale="1" pageWidth="850" pageHeight="1100" math="0" shadow="0">
      <root>
        <mxCell id="0" />
        <mxCell id="1" parent="0" />
        <mxCell id="_Qzaa5entBogjLJZciO9-70" value="&lt;font style=&quot;font-size: 33px;&quot;&gt;Wireframe of the about page&lt;/font&gt;" style="text;html=1;strokeColor=none;fillColor=none;align=center;verticalAlign=middle;whiteSpace=wrap;rounded=0;fontSize=16;" parent="1" vertex="1">
          <mxGeometry x="1140" y="-40" width="320" height="100" as="geometry" />
        </mxCell>
        <mxCell id="oHM1tqddM9_ak2Br6Nf2-1" value="" style="rounded=0;whiteSpace=wrap;html=1;" parent="1" vertex="1">
          <mxGeometry x="960" y="120" width="680" height="210" as="geometry" />
        </mxCell>
        <mxCell id="oHM1tqddM9_ak2Br6Nf2-2" value="&lt;font style=&quot;font-size: 16px;&quot;&gt;Logo&lt;/font&gt;" style="ellipse;whiteSpace=wrap;html=1;aspect=fixed;" parent="1" vertex="1">
          <mxGeometry x="1010" y="160" width="140" height="140" as="geometry" />
        </mxCell>
        <mxCell id="oHM1tqddM9_ak2Br6Nf2-3" value="Moto" style="rounded=0;whiteSpace=wrap;html=1;fontSize=16;" parent="1" vertex="1">
          <mxGeometry x="1200" y="195" width="370" height="60" as="geometry" />
        </mxCell>
        <mxCell id="oHM1tqddM9_ak2Br6Nf2-4" value="" style="rounded=0;whiteSpace=wrap;html=1;fontSize=16;" parent="1" vertex="1">
          <mxGeometry x="960" y="330" width="680" height="50" as="geometry" />
        </mxCell>
        <mxCell id="oHM1tqddM9_ak2Br6Nf2-5" value="Home" style="rounded=0;whiteSpace=wrap;html=1;fontSize=16;" parent="1" vertex="1">
          <mxGeometry x="980" y="330" width="120" height="50" as="geometry" />
        </mxCell>
        <mxCell id="oHM1tqddM9_ak2Br6Nf2-6" value="Academics" style="rounded=0;whiteSpace=wrap;html=1;fontSize=16;" parent="1" vertex="1">
          <mxGeometry x="1110" y="330" width="120" height="50" as="geometry" />
        </mxCell>
        <mxCell id="oHM1tqddM9_ak2Br6Nf2-7" value="Get to know us" style="rounded=0;whiteSpace=wrap;html=1;fontSize=16;" parent="1" vertex="1">
          <mxGeometry x="1370" y="330" width="120" height="50" as="geometry" />
        </mxCell>
        <mxCell id="oHM1tqddM9_ak2Br6Nf2-8" value="Stories" style="rounded=0;whiteSpace=wrap;html=1;fontSize=16;" parent="1" vertex="1">
          <mxGeometry x="1500" y="330" width="120" height="50" as="geometry" />
        </mxCell>
        <mxCell id="oHM1tqddM9_ak2Br6Nf2-9" value="space" style="rounded=0;whiteSpace=wrap;html=1;fontSize=16;" parent="1" vertex="1">
          <mxGeometry x="960" y="380" width="680" height="40" as="geometry" />
        </mxCell>
        <mxCell id="oHM1tqddM9_ak2Br6Nf2-10" value="Calendar" style="rounded=0;whiteSpace=wrap;html=1;fontSize=16;" parent="1" vertex="1">
          <mxGeometry x="1240" y="330" width="120" height="50" as="geometry" />
        </mxCell>
        <mxCell id="oHM1tqddM9_ak2Br6Nf2-11" value="" style="rounded=0;whiteSpace=wrap;html=1;" parent="1" vertex="1">
          <mxGeometry x="960" y="420" width="680" height="450" as="geometry" />
        </mxCell>
        <mxCell id="oHM1tqddM9_ak2Br6Nf2-12" value="&lt;font style=&quot;font-size: 18px;&quot;&gt;About us&lt;/font&gt;" style="rounded=0;whiteSpace=wrap;html=1;" parent="1" vertex="1">
          <mxGeometry x="1240" y="440" width="120" height="60" as="geometry" />
        </mxCell>
        <mxCell id="oHM1tqddM9_ak2Br6Nf2-13" value="&lt;p style=&quot;font-size: 14px;&quot;&gt;&lt;font style=&quot;font-size: 14px;&quot;&gt;Lorem ipsum dolor sit amet, consectetur adipisicing elit, sed do eiusmod tempor incididunt ut labore et dolore magna aliqua.&lt;/font&gt;&lt;/p&gt;&lt;p style=&quot;font-size: 14px;&quot;&gt;&lt;font style=&quot;font-size: 14px;&quot;&gt;Lorem ipsum dolor sit amet, consectetur adipisicing elit, sed do eiusmod tempor incididunt ut labore et dolore magna aliqua.&lt;/font&gt;&lt;/p&gt;&lt;p&gt;&lt;/p&gt;" style="text;html=1;strokeColor=none;fillColor=none;spacing=5;spacingTop=-20;whiteSpace=wrap;overflow=hidden;rounded=0;fontSize=18;" parent="1" vertex="1">
          <mxGeometry x="1270" y="555" width="170" height="270" as="geometry" />
        </mxCell>
        <mxCell id="oHM1tqddM9_ak2Br6Nf2-14" value="&lt;p style=&quot;font-size: 14px;&quot;&gt;&lt;font style=&quot;font-size: 14px;&quot;&gt;Lorem ipsum dolor sit amet, consectetur adipisicing elit, sed do eiusmod tempor incididunt ut labore et dolore magna aliqua.&lt;/font&gt;&lt;/p&gt;&lt;p style=&quot;font-size: 14px;&quot;&gt;&lt;font style=&quot;font-size: 14px;&quot;&gt;Lorem ipsum dolor sit amet, consectetur adipisicing elit, sed do eiusmod tempor incididunt ut labore et dolore magna aliqua.&lt;/font&gt;&lt;/p&gt;&lt;p&gt;&lt;/p&gt;" style="text;html=1;strokeColor=none;fillColor=none;spacing=5;spacingTop=-20;whiteSpace=wrap;overflow=hidden;rounded=0;fontSize=18;" parent="1" vertex="1">
          <mxGeometry x="1440" y="555" width="170" height="270" as="geometry" />
        </mxCell>
        <mxCell id="oHM1tqddM9_ak2Br6Nf2-15" value="image, describing the school" style="rounded=0;whiteSpace=wrap;html=1;fontSize=14;" parent="1" vertex="1">
          <mxGeometry x="1000" y="550" width="230" height="280" as="geometry" />
        </mxCell>
        <mxCell id="oHM1tqddM9_ak2Br6Nf2-16" value="&lt;font style=&quot;font-size: 16px;&quot;&gt;space&lt;/font&gt;" style="rounded=0;whiteSpace=wrap;html=1;fontSize=14;" parent="1" vertex="1">
          <mxGeometry x="960" y="870" width="680" height="60" as="geometry" />
        </mxCell>
        <mxCell id="oHM1tqddM9_ak2Br6Nf2-17" value="" style="rounded=0;whiteSpace=wrap;html=1;fontSize=16;" parent="1" vertex="1">
          <mxGeometry x="960" y="930" width="680" height="130" as="geometry" />
        </mxCell>
        <mxCell id="oHM1tqddM9_ak2Br6Nf2-18" value="&lt;font style=&quot;font-size: 24px;&quot;&gt;1500&lt;/font&gt;" style="rounded=0;whiteSpace=wrap;html=1;fontSize=16;" parent="1" vertex="1">
          <mxGeometry x="1010" y="945" width="120" height="55" as="geometry" />
        </mxCell>
        <mxCell id="oHM1tqddM9_ak2Br6Nf2-19" value="&lt;font style=&quot;font-size: 24px;&quot;&gt;54&lt;/font&gt;" style="rounded=0;whiteSpace=wrap;html=1;fontSize=16;" parent="1" vertex="1">
          <mxGeometry x="1240" y="945" width="120" height="55" as="geometry" />
        </mxCell>
        <mxCell id="oHM1tqddM9_ak2Br6Nf2-20" value="&lt;font style=&quot;font-size: 24px;&quot;&gt;3&lt;/font&gt;" style="rounded=0;whiteSpace=wrap;html=1;fontSize=16;" parent="1" vertex="1">
          <mxGeometry x="1465" y="945" width="120" height="55" as="geometry" />
        </mxCell>
        <mxCell id="oHM1tqddM9_ak2Br6Nf2-21" value="&lt;font style=&quot;font-size: 16px;&quot;&gt;Students&lt;/font&gt;" style="rounded=0;whiteSpace=wrap;html=1;fontSize=24;" parent="1" vertex="1">
          <mxGeometry x="1010" y="1002.5" width="120" height="40" as="geometry" />
        </mxCell>
        <mxCell id="oHM1tqddM9_ak2Br6Nf2-22" value="&lt;font style=&quot;font-size: 16px;&quot;&gt;Staff&lt;/font&gt;" style="rounded=0;whiteSpace=wrap;html=1;fontSize=24;" parent="1" vertex="1">
          <mxGeometry x="1240" y="1002.5" width="120" height="40" as="geometry" />
        </mxCell>
        <mxCell id="oHM1tqddM9_ak2Br6Nf2-23" value="&lt;font style=&quot;font-size: 16px;&quot;&gt;Campuses&lt;/font&gt;" style="rounded=0;whiteSpace=wrap;html=1;fontSize=24;" parent="1" vertex="1">
          <mxGeometry x="1465" y="1002.5" width="120" height="40" as="geometry" />
        </mxCell>
        <mxCell id="oHM1tqddM9_ak2Br6Nf2-24" value="&lt;font style=&quot;font-size: 16px;&quot;&gt;space&lt;/font&gt;" style="rounded=0;whiteSpace=wrap;html=1;fontSize=14;" parent="1" vertex="1">
          <mxGeometry x="960" y="1060" width="680" height="60" as="geometry" />
        </mxCell>
        <mxCell id="oHM1tqddM9_ak2Br6Nf2-25" value="" style="rounded=0;whiteSpace=wrap;html=1;fontSize=16;" parent="1" vertex="1">
          <mxGeometry x="960" y="1120" width="680" height="470" as="geometry" />
        </mxCell>
        <mxCell id="oHM1tqddM9_ak2Br6Nf2-26" value="Management" style="rounded=0;whiteSpace=wrap;html=1;fontSize=16;" parent="1" vertex="1">
          <mxGeometry x="1000" y="1135" width="120" height="60" as="geometry" />
        </mxCell>
        <mxCell id="oHM1tqddM9_ak2Br6Nf2-35" value="&lt;font style=&quot;font-size: 16px;&quot;&gt;picture of a person&lt;/font&gt;" style="rounded=1;whiteSpace=wrap;html=1;fontSize=12;arcSize=8;" parent="1" vertex="1">
          <mxGeometry x="1030" y="1220" width="150" height="190" as="geometry" />
        </mxCell>
        <mxCell id="oHM1tqddM9_ak2Br6Nf2-39" value="&lt;h1 style=&quot;font-size: 16px;&quot;&gt;&lt;font style=&quot;font-size: 16px;&quot;&gt;Name of the person&lt;br&gt;&lt;/font&gt;&lt;/h1&gt;&lt;p style=&quot;font-size: 20px;&quot;&gt;&lt;font style=&quot;font-size: 14px;&quot;&gt;Lorem ipsum dolor sit amet, consectetur adipisicing elit, sed do &lt;br&gt;&lt;/font&gt;&lt;/p&gt;" style="text;html=1;strokeColor=none;fillColor=none;spacing=5;spacingTop=-20;whiteSpace=wrap;overflow=hidden;rounded=0;fontSize=24;" parent="1" vertex="1">
          <mxGeometry x="1030" y="1430" width="170" height="130" as="geometry" />
        </mxCell>
        <mxCell id="oHM1tqddM9_ak2Br6Nf2-40" value="&lt;font style=&quot;font-size: 16px;&quot;&gt;picture of a person&lt;/font&gt;" style="rounded=1;whiteSpace=wrap;html=1;fontSize=12;arcSize=8;" parent="1" vertex="1">
          <mxGeometry x="1230" y="1220" width="150" height="190" as="geometry" />
        </mxCell>
        <mxCell id="oHM1tqddM9_ak2Br6Nf2-41" value="&lt;h1 style=&quot;font-size: 16px;&quot;&gt;&lt;font style=&quot;font-size: 16px;&quot;&gt;Name of the person&lt;br&gt;&lt;/font&gt;&lt;/h1&gt;&lt;p style=&quot;font-size: 20px;&quot;&gt;&lt;font style=&quot;font-size: 14px;&quot;&gt;Lorem ipsum dolor sit amet, consectetur adipisicing elit, sed do &lt;br&gt;&lt;/font&gt;&lt;/p&gt;" style="text;html=1;strokeColor=none;fillColor=none;spacing=5;spacingTop=-20;whiteSpace=wrap;overflow=hidden;rounded=0;fontSize=24;" parent="1" vertex="1">
          <mxGeometry x="1230" y="1430" width="170" height="130" as="geometry" />
        </mxCell>
        <mxCell id="oHM1tqddM9_ak2Br6Nf2-42" value="&lt;font style=&quot;font-size: 16px;&quot;&gt;picture of a person&lt;/font&gt;" style="rounded=1;whiteSpace=wrap;html=1;fontSize=12;arcSize=8;" parent="1" vertex="1">
          <mxGeometry x="1432.5" y="1220" width="150" height="190" as="geometry" />
        </mxCell>
        <mxCell id="oHM1tqddM9_ak2Br6Nf2-43" value="&lt;h1 style=&quot;font-size: 16px;&quot;&gt;&lt;font style=&quot;font-size: 16px;&quot;&gt;Name of the person&lt;br&gt;&lt;/font&gt;&lt;/h1&gt;&lt;p style=&quot;font-size: 20px;&quot;&gt;&lt;font style=&quot;font-size: 14px;&quot;&gt;Lorem ipsum dolor sit amet, consectetur adipisicing elit, sed do &lt;br&gt;&lt;/font&gt;&lt;/p&gt;" style="text;html=1;strokeColor=none;fillColor=none;spacing=5;spacingTop=-20;whiteSpace=wrap;overflow=hidden;rounded=0;fontSize=24;" parent="1" vertex="1">
          <mxGeometry x="1432.5" y="1430" width="170" height="130" as="geometry" />
        </mxCell>
        <mxCell id="oHM1tqddM9_ak2Br6Nf2-44" value="&lt;font style=&quot;font-size: 16px;&quot;&gt;space&lt;/font&gt;" style="rounded=0;whiteSpace=wrap;html=1;fontSize=14;" parent="1" vertex="1">
          <mxGeometry x="960" y="1570" width="680" height="40" as="geometry" />
        </mxCell>
        <mxCell id="oHM1tqddM9_ak2Br6Nf2-45" value="" style="rounded=0;whiteSpace=wrap;html=1;fontSize=16;" parent="1" vertex="1">
          <mxGeometry x="960" y="1610" width="680" height="260" as="geometry" />
        </mxCell>
        <mxCell id="oHM1tqddM9_ak2Br6Nf2-46" value="Contact us" style="rounded=0;whiteSpace=wrap;html=1;fontSize=16;" parent="1" vertex="1">
          <mxGeometry x="990" y="1630" width="110" height="40" as="geometry" />
        </mxCell>
        <mxCell id="oHM1tqddM9_ak2Br6Nf2-47" value="email field" style="rounded=0;whiteSpace=wrap;html=1;fontSize=16;" parent="1" vertex="1">
          <mxGeometry x="990" y="1700" width="180" height="40" as="geometry" />
        </mxCell>
        <mxCell id="oHM1tqddM9_ak2Br6Nf2-48" value="message field" style="rounded=0;whiteSpace=wrap;html=1;fontSize=16;" parent="1" vertex="1">
          <mxGeometry x="990" y="1750" width="180" height="60" as="geometry" />
        </mxCell>
        <mxCell id="oHM1tqddM9_ak2Br6Nf2-49" value="submit" style="rounded=1;whiteSpace=wrap;html=1;fontSize=16;" parent="1" vertex="1">
          <mxGeometry x="990" y="1820" width="100" height="30" as="geometry" />
        </mxCell>
        <mxCell id="oHM1tqddM9_ak2Br6Nf2-50" value="Site-map" style="rounded=0;whiteSpace=wrap;html=1;fontSize=16;" parent="1" vertex="1">
          <mxGeometry x="1240" y="1630" width="110" height="40" as="geometry" />
        </mxCell>
        <mxCell id="oHM1tqddM9_ak2Br6Nf2-51" value="&lt;div align=&quot;left&quot;&gt;- Home&lt;/div&gt;&lt;div align=&quot;left&quot;&gt;- Calendar&lt;/div&gt;&lt;div align=&quot;left&quot;&gt;- Success stories&lt;br&gt;&lt;/div&gt;&lt;div align=&quot;left&quot;&gt;- About&lt;/div&gt;&lt;div align=&quot;left&quot;&gt;- Contact us&lt;/div&gt;&lt;div&gt;&lt;br&gt;&lt;/div&gt;&lt;div&gt;&lt;br&gt;&lt;/div&gt;" style="text;html=1;strokeColor=none;fillColor=none;align=center;verticalAlign=middle;whiteSpace=wrap;rounded=0;fontSize=16;" parent="1" vertex="1">
          <mxGeometry x="1230" y="1700" width="140" height="140" as="geometry" />
        </mxCell>
        <mxCell id="oHM1tqddM9_ak2Br6Nf2-52" value="Logo" style="ellipse;whiteSpace=wrap;html=1;aspect=fixed;fontSize=16;" parent="1" vertex="1">
          <mxGeometry x="1440" y="1630" width="70" height="70" as="geometry" />
        </mxCell>
        <mxCell id="oHM1tqddM9_ak2Br6Nf2-53" value="&lt;font style=&quot;font-size: 18px;&quot;&gt;School Name&lt;/font&gt;" style="text;html=1;strokeColor=none;fillColor=none;align=center;verticalAlign=middle;whiteSpace=wrap;rounded=0;fontSize=16;" parent="1" vertex="1">
          <mxGeometry x="1510" y="1635" width="90" height="60" as="geometry" />
        </mxCell>
        <mxCell id="oHM1tqddM9_ak2Br6Nf2-54" value="&lt;div align=&quot;left&quot;&gt;&lt;font style=&quot;font-size: 16px;&quot;&gt;Phone number&lt;/font&gt;&lt;/div&gt;" style="text;html=1;strokeColor=none;fillColor=none;align=left;verticalAlign=middle;whiteSpace=wrap;rounded=0;fontSize=18;" parent="1" vertex="1">
          <mxGeometry x="1450" y="1710" width="135" height="30" as="geometry" />
        </mxCell>
        <mxCell id="oHM1tqddM9_ak2Br6Nf2-55" value="&lt;div style=&quot;font-size: 16px;&quot; align=&quot;left&quot;&gt;&lt;font style=&quot;font-size: 16px;&quot;&gt;Email address&lt;br&gt;&lt;/font&gt;&lt;/div&gt;" style="text;html=1;strokeColor=none;fillColor=none;align=left;verticalAlign=middle;whiteSpace=wrap;rounded=0;fontSize=18;" parent="1" vertex="1">
          <mxGeometry x="1450" y="1740" width="135" height="30" as="geometry" />
        </mxCell>
        <mxCell id="oHM1tqddM9_ak2Br6Nf2-56" value="&lt;font style=&quot;font-size: 16px;&quot;&gt;Postal code&lt;/font&gt;" style="text;html=1;strokeColor=none;fillColor=none;align=left;verticalAlign=middle;whiteSpace=wrap;rounded=0;fontSize=18;" parent="1" vertex="1">
          <mxGeometry x="1450" y="1770" width="135" height="30" as="geometry" />
        </mxCell>
        <mxCell id="oHM1tqddM9_ak2Br6Nf2-57" value="&lt;div align=&quot;left&quot;&gt;&amp;nbsp;&amp;nbsp;&amp;nbsp;&amp;nbsp;&amp;nbsp;&amp;nbsp; copyright information&lt;br&gt;&lt;/div&gt;" style="rounded=0;whiteSpace=wrap;html=1;fontSize=16;align=left;" parent="1" vertex="1">
          <mxGeometry x="960" y="1870" width="680" height="40" as="geometry" />
        </mxCell>
      </root>
    </mxGraphModel>
  </diagram>
</mxfile>
